<svg width="30" height="30" viewBox="0 0 120 40" fill="none" xmlns="http://www.w3.org/2000/svg">
<circle cx="40" cy="40" r="40" fill="#02D767"/>
<path d="M26.7317 37.4562L26.6921 37.4948C25.2232 38.9276 25.2182 41.2556 26.681 42.6944L26.7204 42.7332C28.1833 44.1721 30.5599 44.1769 32.0289 42.7441L32.0685 42.7055C33.5374 41.2727 33.5424 38.9447 32.0796 37.5058L32.0402 37.4671C30.5774 36.0282 28.2007 36.0233 26.7317 37.4562Z" fill="white"/>
<path d="M29.1411 22L25.2395 25.8543L25.2655 25.8777L14.8567 36.155V36.1387L11 39.9439L11.0141 39.9579L11 39.9743L14.8143 43.7725L29.0162 58C29.0162 58 32.3735 53.6058 29.0727 50.3171L18.6781 39.9533L29.0798 29.6689L34.3313 34.9092C38.8076 39.3759 42 34.8111 42 34.8111L29.1411 22Z" fill="white"/>
<path d="M68.9503 40.0423L69 39.9953L50.9573 22C50.9573 22 47.6428 26.3002 50.7821 29.4295L61.4358 40.0564L51.007 50.373L46.1276 45.511C42.6332 42.0243 38 45.1818 38 45.1818L50.8579 58L54.7713 54.1277L68.9763 40.0752L68.9503 40.0423Z" fill="white"/>
<path d="M48.1259 37.4985L48.0863 37.5371C46.6173 38.9699 46.6124 41.2979 48.0752 42.7367L48.1146 42.7755C49.5774 44.2144 51.9541 44.2192 53.4231 42.7864L53.4627 42.7478C54.9316 41.315 54.9366 38.987 53.4738 37.5481L53.4344 37.5094C51.9715 36.0705 49.5949 36.0656 48.1259 37.4985Z" fill="white"/>
</svg>